<?xml version="1.0" standalone="no"?>
<!DOCTYPE svg PUBLIC "-//W3C//DTD SVG 20010904//EN"
 "http://www.w3.org/TR/2001/REC-SVG-20010904/DTD/svg10.dtd">
<svg version="1.0" xmlns="http://www.w3.org/2000/svg"
 width="204.000000pt" height="204.000000pt" viewBox="0 0 204.000000 204.000000"
 preserveAspectRatio="xMidYMid meet">
<metadata>
Created by potrace 1.11, written by Peter Selinger 2001-2013
</metadata>
<g transform="translate(0.000000,204.000000) scale(0.100000,-0.100000)"
fill="#000000" stroke="none">
<path d="M1060 1826 c-170 -36 -237 -60 -405 -149 -56 -29 -182 -127 -231
-178 -130 -138 -209 -275 -251 -434 -9 -33 -19 -62 -23 -65 -4 -3 -10 -15 -14
-27 -6 -19 -4 -23 13 -23 12 0 21 -6 21 -13 0 -7 12 -30 26 -51 l27 -39 13 24
c10 20 10 27 -3 41 -8 10 -13 24 -9 33 5 13 14 10 57 -20 60 -41 74 -43 83
-12 9 34 8 36 -27 51 -70 29 -113 100 -105 175 5 56 28 51 28 -5 0 -45 1 -47
16 -32 12 11 17 36 18 80 3 84 47 188 81 188 16 0 35 16 61 50 40 53 129 127
177 148 17 7 27 19 27 32 0 12 -4 19 -9 15 -5 -3 -12 -1 -16 5 -3 5 -1 10 4
10 6 0 35 11 63 25 29 14 59 23 66 20 8 -3 29 11 49 31 26 28 42 37 65 36 43
-1 127 -22 134 -33 9 -16 50 -10 77 11 14 11 32 20 40 20 17 0 63 -50 72 -80
3 -11 12 -20 18 -21 18 -2 62 2 66 6 1 2 -7 22 -20 45 -22 39 -98 100 -126
100 -7 0 -13 7 -13 15 0 18 21 19 91 4 99 -21 158 -100 175 -236 6 -47 9 -53
36 -58 17 -4 34 -3 40 3 12 12 -7 124 -28 164 -18 35 -18 58 1 58 32 0 58 -79
64 -194 6 -109 6 -109 34 -119 47 -15 52 -1 40 109 -6 61 -15 99 -24 104 -7 5
-10 12 -7 16 11 11 -29 79 -63 108 -43 37 -30 43 24 12 48 -28 73 -33 79 -14
2 6 28 -11 57 -40 49 -48 81 -65 81 -43 0 14 -66 69 -108 90 -111 56 -401 86
-542 57z"/>
<path d="M1565 1693 c15 -25 29 -68 32 -94 5 -41 10 -49 35 -60 16 -6 31 -9
34 -7 9 10 -17 103 -42 145 -43 74 -99 89 -59 16z"/>
<path d="M837 1696 c-15 -12 -13 -15 26 -30 65 -25 88 -55 96 -123 l6 -58 37
-3 c33 -3 38 0 44 22 15 60 -24 145 -81 177 -43 24 -106 32 -128 15z"/>
<path d="M1680 1656 c0 -2 7 -20 15 -39 8 -20 15 -62 15 -94 0 -64 4 -74 38
-92 32 -17 36 -10 33 51 -4 75 -37 157 -68 169 -27 10 -33 11 -33 5z"/>
<path d="M698 1628 c-44 -15 -33 -25 34 -30 54 -4 65 -8 88 -36 25 -30 29 -31
58 -21 41 14 40 30 -3 68 -31 27 -43 31 -93 30 -31 0 -69 -5 -84 -11z"/>
<path d="M862 1472 c-16 -5 -30 -24 -46 -65 -28 -66 -63 -116 -110 -154 -30
-23 -33 -29 -23 -50 5 -13 14 -23 20 -23 19 0 134 127 165 183 56 100 55 126
-6 109z"/>
<path d="M1359 1427 c-68 -254 -243 -498 -457 -637 -29 -18 -52 -38 -52 -44 0
-6 9 -22 18 -34 l19 -24 62 43 c65 45 201 165 201 178 0 4 18 28 41 52 92 99
213 316 239 427 7 29 10 55 7 58 -2 2 -18 9 -35 14 -31 8 -32 7 -43 -33z"/>
<path d="M893 1323 c-52 -78 -139 -161 -218 -207 -50 -30 -65 -44 -65 -62 0
-38 17 -37 86 1 83 46 203 160 261 245 42 64 43 65 21 72 -42 11 -47 8 -85
-49z"/>
<path d="M1460 1333 c-17 -51 -102 -236 -115 -248 -6 -5 -24 -30 -41 -54 -16
-24 -60 -80 -97 -123 -66 -77 -68 -80 -51 -99 9 -10 23 -19 30 -19 28 0 156
158 240 295 53 89 127 256 116 266 -4 4 -21 10 -39 14 -29 6 -32 4 -43 -32z"/>
<path d="M340 1305 c-20 -53 -23 -121 -6 -153 19 -38 27 -39 44 -11 11 17 11
27 2 50 -7 16 -10 53 -8 84 4 42 1 55 -9 55 -7 0 -18 -11 -23 -25z"/>
<path d="M1507 1136 c-25 -47 -62 -110 -82 -141 -21 -31 -36 -57 -34 -58 2 -2
16 -11 31 -20 l26 -16 50 78 c70 107 118 209 107 220 -6 5 -20 12 -31 15 -19
6 -28 -4 -67 -78z"/>
<path d="M585 1180 c-26 -13 -62 -20 -106 -20 -60 0 -67 -2 -79 -25 -7 -14
-10 -28 -6 -32 4 -5 40 -8 79 -7 94 1 190 41 185 76 -4 29 -23 31 -73 8z"/>
<path d="M824 1093 c-95 -78 -207 -130 -313 -145 -73 -11 -84 -15 -92 -36 -13
-33 -4 -42 41 -42 129 0 359 108 459 214 24 25 24 26 6 46 -10 11 -21 20 -25
20 -4 0 -38 -25 -76 -57z"/>
<path d="M300 1091 c-17 -33 -11 -50 28 -75 45 -30 103 -41 174 -32 68 9 77
15 71 49 -4 20 -10 26 -23 22 -9 -3 -49 -6 -88 -7 -71 -1 -96 8 -135 47 -15
14 -17 14 -27 -4z"/>
<path d="M1575 1017 c-27 -45 -73 -115 -103 -156 l-54 -74 23 -18 c13 -10 27
-19 30 -19 10 0 131 174 172 250 l38 69 -29 15 -30 15 -47 -82z"/>
<path d="M765 920 c-84 -50 -193 -80 -294 -80 -54 0 -105 6 -132 15 -40 15
-45 14 -56 -2 -7 -9 -13 -22 -13 -29 0 -17 68 -42 150 -56 94 -16 213 6 325
61 113 56 110 53 91 90 -9 17 -18 31 -19 31 -1 0 -24 -14 -52 -30z"/>
<path d="M117 870 c-11 -86 -9 -260 3 -260 6 0 13 7 16 15 8 19 23 19 44 0 16
-14 18 -13 24 16 5 27 9 30 30 25 18 -4 25 -1 29 14 4 15 -5 27 -38 50 -53 37
-84 86 -94 148 l-7 47 -7 -55z"/>
<path d="M1330 863 c-13 -19 -74 -83 -136 -142 l-112 -106 23 -30 24 -29 141
141 c77 78 140 147 140 155 0 8 -13 21 -28 30 -27 16 -28 16 -52 -19z"/>
<path d="M1074 768 c-66 -57 -116 -93 -186 -132 -38 -21 -68 -39 -68 -40 0 -9
23 -66 26 -66 26 0 201 114 274 179 l45 40 -26 27 -27 26 -38 -34z"/>
<path d="M1295 653 c-44 -48 -117 -113 -162 -146 -85 -62 -90 -72 -49 -106 13
-11 26 -5 84 37 69 51 262 243 262 260 0 8 -44 43 -52 41 -2 0 -39 -39 -83
-86z"/>
<path d="M730 700 c-36 -16 -96 -34 -135 -41 -75 -12 -212 -7 -258 10 -26 10
-27 9 -33 -30 -6 -38 -9 -41 -34 -35 -22 4 -29 1 -33 -14 -6 -25 65 -71 142
-94 74 -22 78 -21 73 14 -4 29 -10 33 -69 45 -19 4 -33 13 -33 21 0 16 25 17
90 4 68 -14 208 5 298 40 108 42 107 41 88 79 -9 17 -20 31 -24 30 -4 -1 -36
-14 -72 -29z"/>
<path d="M1005 569 c-60 -40 -162 -88 -234 -109 -70 -22 -72 -23 -66 -49 3
-14 10 -30 15 -35 22 -22 208 51 328 127 l42 27 -22 30 c-25 35 -24 35 -63 9z"/>
<path d="M710 565 c-95 -26 -142 -35 -185 -35 -47 0 -48 -1 -39 -37 6 -22 12
-23 92 -23 76 0 194 22 214 39 8 7 -18 71 -29 70 -4 -1 -28 -7 -53 -14z"/>
<path d="M360 436 c0 -22 9 -27 78 -50 84 -27 199 -42 219 -29 8 6 10 18 5 38
l-8 30 -110 6 c-60 3 -122 11 -137 17 -40 17 -47 15 -47 -12z"/>
<path d="M965 403 c-80 -41 -185 -74 -258 -80 -37 -3 -70 -10 -73 -15 -3 -5
-2 -22 1 -39 l7 -31 67 7 c83 8 189 39 266 77 79 39 81 41 59 76 l-19 30 -50
-25z"/>
<path d="M274 408 c-10 -16 51 -68 120 -101 59 -29 181 -65 190 -56 3 3 2 18
-3 35 -7 27 -13 30 -89 46 -79 17 -174 56 -187 78 -8 13 -22 13 -31 -2z"/>
</g>
</svg>
